<svg viewBox="119.128 74.434 119.319 149.036" xmlns="http://www.w3.org/2000/svg"><g fill-rule="evenodd"><path d="M119.128 149.991c1.74 9.297 4.104 17.083 7.095 23.36 3.02 6.276 6.541 11.337 10.552 15.176 4.005 3.88 8.375 6.855 13.104 8.923a64.65 64.65 0 0014.937 4.536 148.183 148.183 0 0015.97 1.921c5.385.396 10.76.824 16.113 1.281 5.36.46 10.532 1.267 15.527 2.418a51.987 51.987 0 0114.093 5.468c4.407 2.496 8.38 5.964 11.928 10.396-2.761-7.948-5.833-14.536-9.219-19.76-3.412-5.255-7.125-9.495-11.136-12.714-3.973-3.218-8.245-5.765-12.812-7.64-4.568-1.87-9.401-3.4-14.494-4.584a825.749 825.749 0 00-15.964-3.645c-5.584-1.188-11.37-2.73-17.35-4.636-6.016-1.907-12.224-4.47-18.63-7.688-6.375-3.25-12.947-7.525-19.714-12.812" fill="#00858a"/><path d="M133.962 108.491c.428 8.807 1.594 16.281 3.5 22.427 1.87 6.141 4.333 11.234 7.39 15.276 3.09 4.073 6.604 7.376 10.547 9.906 3.943 2.563 8.183 4.646 12.715 6.26a159.57 159.57 0 0014.098 4.235 531.138 531.138 0 0114.64 3.995 97.533 97.533 0 0114.292 5.37c4.667 2.171 9.03 5.015 13.11 8.531 4.104 3.479 7.802 7.916 11.088 13.307-1.12-9.27-2.938-17.17-5.468-23.708-2.532-6.506-5.604-11.943-9.22-16.312-3.646-4.37-7.687-8-12.124-10.896a85.376 85.376 0 00-14.192-7.292 296.44 296.44 0 00-15.382-5.572 304.604 304.604 0 01-15.77-5.814 98.974 98.974 0 01-15.276-7.885c-4.932-3.125-9.578-7.068-13.948-11.828" fill="#009cab"/><path d="M167.576 74.434c-.953 7.792-1.005 14.51-.15 20.156.89 5.65 2.464 10.47 4.734 14.442 2.266 3.975 5.026 7.396 8.276 10.251a67.791 67.791 0 0010.599 7.541 344.702 344.702 0 0011.683 6.454 125.945 125.945 0 0111.577 6.853c3.713 2.47 7.1 5.39 10.157 8.772 3.02 3.385 5.515 7.473 7.49 12.276-.162-8.71-1.12-16.235-2.86-22.573-1.776-6.312-4.135-11.735-7.094-16.266-2.926-4.5-6.245-8.39-9.958-11.682a105.373 105.373 0 00-11.73-8.922c-4.072-2.625-8.114-5.24-12.125-7.833a93.322 93.322 0 01-11.333-8.527c-3.515-3.087-6.604-6.74-9.266-10.942" fill="#7abdd4"/></g></svg>